<svg height="512" viewBox="0 0 58 59" width="512" xmlns="http://www.w3.org/2000/svg"><g id="Page-1" fill="none" fill-rule="evenodd"><g id="060---Dining" fill-rule="nonzero" transform="translate(-1)"><path id="Shape" d="m50.1 15.092c-4.9059739-6.60297395-12.7462294-10.36995902-20.9669478-10.07392926s-15.7697184 4.61718508-20.1880522 11.55592926l-.331 26.381c4.5540268 7.5138037 12.7170791 12.0865765 21.5031321 12.0456092s16.9061078-4.6896644 21.3898679-12.2456092z" fill="#547580"/><path id="Shape" d="m44.544 21.183c-2.9874945-4.9230664-8.2641687-7.9990383-14.0201642-8.1728812-5.7559955-.1738428-11.2086842 2.5780804-14.4878358 7.3118812l-1.861 3.9c-.8081823 1.817318-1.2092148 3.7893742-1.175 5.778.0249739 8.7818308 6.7347059 16.0992969 15.4814699 16.8837042 8.7467641.7844073 16.6514172-5.2224448 18.2385301-13.8597042z" fill="#3f5c6c"/><path id="Shape" d="m6.13041472 38.0960535c2.209139 0 3.99999998 1.790861 3.99999998 4v17h-7.99999998v-17c0-2.209139 1.790861-4 4-4z" fill="#ff5364" transform="matrix(-.985 -.174 .174 -.985 3.729 97.518)"/><path id="Shape" d="m20.121 3.832c.0722228-.35613102-.054427-.72341261-.3308077-.95933454-.2763807-.23592192-.6589895-.30334967-.9993689-.17612036s-.5849532.42908956-.6388234.7884549l-2.084 11.815c.0004646.0053232.0004646.0106768 0 .016l-1.366-.24c.0155181-.0353825.0285497-.0718042.039-.109l2.085-11.816c.0750127-.35679366-.0501021-.72613645-.3265157-.96388453-.2764136-.23774809-.6603141-.30621816-1.0018764-.17868833-.3415622.12752983-.5866482.43084596-.6396079.79157286l-2.084 11.822c-.0019913.038641-.0019913.077359 0 .116l-1.404-.248c0-.015.012-.026.015-.041l2.084-11.818c.0828302-.53736791-.2788697-1.04245041-.8142858-1.13707957-.5354162-.09462916-1.0483318.25587427-1.1547142.78907957l-2.084 11.817v.044l-1.238-.219c.00460482-.01043.00861132-.021114.012-.032l2.085-11.815c.0709282-.35550316-.0560921-.72155322-.33198064-.95671018-.27588858-.23515695-.65743719-.30259164-.99721726-.17624764-.33978007.12634401-.58457688.42667933-.6398021.78495782l-2.084 11.817v.035h-.012l-.332 1.885c-.35269492 1.9995843-.23491826 4.0538282.344 6 .6756817 2.271379.72130797 4.6836952.132 6.979l-2.341 9.117 7.879 1.389.919-9.372c.2312671-2.3584475 1.0992035-4.6096899 2.511-6.513 1.2101344-1.6302468 2.0242736-3.5197482 2.378-5.519l.329-1.869c0-.01.009-.019.011-.029z" fill="#bdc3c7"/><path id="Shape" d="m49.8708799 38.1000558h8v17c0 2.209139-1.790861 4-4 4s-4-1.790861-4-4z" fill="#ff5364" transform="matrix(.985 -.174 .174 .985 -7.621 10.093)"/><path id="Shape" d="m48.108 38.952-.347-1.969c-.0458528-.2614536-.1937748-.4939494-.4111732-.6462596s-.4864336-.2119363-.7478268-.1657404l-.464.082c-.3603545.0643249-.7270577-.0733805-.956-.359-.745-.927-2.3-3.532-3.444-10.035-2.952-16.741 6.608-31.628 9.213-16.859l5.036 28.559-7.879 1.389" fill="#bdc3c7"/><path id="Shape" d="m30 24.9c-1.026521-1.4773875-2.7012357-2.3705687-4.5-2.4-2.664 0-4.5 2.4-4.5 5.212 0 3.431 2.8 6.84 8.719 10.705.170901.1109654.391099.1109654.562 0 5.919-3.865 8.719-7.274 8.719-10.705 0-2.812-1.836-5.212-4.5-5.212-1.7987643.0294313-3.473479.9226125-4.5 2.4z" fill="#ff5364"/></g></g></svg>